<?xml version="1.0" encoding="utf-8"?>
<!-- Generator: Adobe Illustrator 16.0.0, SVG Export Plug-In . SVG Version: 6.00 Build 0)  -->
<!DOCTYPE svg PUBLIC "-//W3C//DTD SVG 1.1//EN" "http://www.w3.org/Graphics/SVG/1.1/DTD/svg11.dtd">
<svg version="1.1" id="Layer_1" xmlns="http://www.w3.org/2000/svg" xmlns:xlink="http://www.w3.org/1999/xlink" x="0px" y="0px"
	 width="370px" height="310px" viewBox="0 0 370 310" enable-background="new 0 0 370 310" xml:space="preserve">
<g id="version_s">
	<ellipse id="body" cx="184.427" cy="167.007" rx="105.906" ry="131.993"/>
	<path id="separator_body" fill="none" stroke="#FFFFFF" stroke-width="16" stroke-linecap="round" stroke-miterlimit="10" d="
		M111.199,84.5c0,17.961,44.728,36.5,74.924,36.5h-0.731c40.858,0,72.81-17.789,72.81-35.75"/>
	
		<line id="separator_head" fill="none" stroke="#FFFFFF" stroke-width="16" stroke-linecap="round" stroke-miterlimit="10" x1="184" y1="292" x2="184" y2="130"/>
	<g id="legs">
		
			<polyline id="leg_1" fill="none" stroke="#000000" stroke-width="16" stroke-linecap="round" stroke-linejoin="bevel" stroke-miterlimit="10" points="
			39.25,89.82 80.5,107.191 88.75,132.463 		"/>
		
			<polyline id="leg_2" fill="none" stroke="#000000" stroke-width="16" stroke-linecap="round" stroke-linejoin="bevel" stroke-miterlimit="10" points="
			331.004,89.82 289.754,107.191 281.504,132.463 		"/>
		
			<polyline id="leg_3" fill="none" stroke="#000000" stroke-width="16" stroke-linecap="round" stroke-linejoin="bevel" stroke-miterlimit="10" points="
			61.042,298.727 61.238,253.951 93.956,236.299 		"/>
		
			<polyline id="leg_4" fill="none" stroke="#000000" stroke-width="16" stroke-linecap="round" stroke-linejoin="bevel" stroke-miterlimit="10" points="
			308.945,298.727 308.75,253.951 276.032,236.299 		"/>
		
			<polyline id="leg_5" fill="none" stroke="#000000" stroke-width="16" stroke-linecap="round" stroke-linejoin="bevel" stroke-miterlimit="10" points="
			359.834,193.66 325.649,164.742 290.982,178.17 		"/>
		
			<polyline id="leg_6" fill="none" stroke="#000000" stroke-width="16" stroke-linecap="round" stroke-linejoin="bevel" stroke-miterlimit="10" points="
			9.982,193.66 44.167,164.742 78.834,178.17 		"/>
	</g>
	<g id="aerials">
		
			<polyline id="aerialleft" fill="none" stroke="#000000" stroke-width="16" stroke-linecap="round" stroke-linejoin="bevel" stroke-miterlimit="10" points="
			169.25,38.014 132.25,20.08 98,10.335 		"/>
		
			<polyline id="aerial_right" fill="none" stroke="#000000" stroke-width="16" stroke-linecap="round" stroke-linejoin="bevel" stroke-miterlimit="10" points="
			202,38.014 239,20.08 273.25,10.335 		"/>
	</g>
</g>
</svg>
