<?xml version="1.0" standalone="no"?>
<!DOCTYPE svg PUBLIC "-//W3C//DTD SVG 20010904//EN"
 "http://www.w3.org/TR/2001/REC-SVG-20010904/DTD/svg10.dtd">
<svg version="1.0" xmlns="http://www.w3.org/2000/svg"
 width="740.000000pt" height="740.000000pt" viewBox="0 0 740.000000 740.000000"
 preserveAspectRatio="xMidYMid meet">
<metadata>
Created by potrace 1.11, written by Peter Selinger 2001-2013
</metadata>
<g transform="translate(0.000000,740.000000) scale(0.100000,-0.100000)"
fill="#000000" stroke="none">
<path d="M1880 6728 c-48 -33 -72 -70 -77 -120 -6 -52 22 -118 63 -144 13 -9
134 -48 267 -86 457 -130 458 -130 721 -258 l250 -121 -80 -33 c-310 -128
-607 -356 -832 -640 -34 -42 -62 -79 -62 -81 0 -2 16 3 35 11 19 7 46 14 60
14 67 0 141 -59 151 -120 12 -71 27 -101 76 -155 175 -192 649 -387 1068 -441
421 -53 960 58 1265 260 138 92 207 182 220 288 11 89 78 152 160 150 24 0 53
-5 65 -12 12 -6 23 -10 25 -8 8 8 -149 192 -250 293 -177 177 -409 338 -607
422 -48 20 -88 40 -88 43 0 3 120 62 265 132 l265 127 352 101 c257 73 358
106 376 122 105 99 45 278 -94 278 -26 0 -194 -43 -397 -100 l-352 -101 -385
-185 c-363 -176 -433 -215 -445 -254 -4 -14 -27 -15 -182 -13 l-177 3 -18 29
c-22 35 -55 52 -487 260 l-334 161 -352 100 c-193 55 -369 100 -391 100 -26 0
-53 -8 -74 -22z"/>
<path d="M700 5137 c-92 -61 -96 -194 -10 -259 21 -15 240 -110 717 -309 l72
-30 75 -227 76 -227 -15 -85 c-22 -129 -35 -269 -43 -436 l-7 -151 -305 118
c-168 66 -316 119 -329 119 -13 0 -53 -5 -88 -12 l-64 -12 -353 -298 c-383
-324 -394 -336 -383 -419 15 -111 142 -175 234 -119 18 10 164 131 325 268
161 136 298 251 305 255 6 4 151 -47 321 -113 171 -66 322 -120 336 -120 29 0
29 -1 46 -125 26 -185 98 -456 173 -646 l34 -87 -336 -181 -336 -181 -43 -74
-42 -73 0 -457 c0 -499 0 -495 59 -550 25 -24 42 -31 90 -34 73 -5 121 20 151
79 19 36 20 60 20 452 0 320 3 417 13 424 20 16 555 303 564 303 4 -1 28 -34
51 -75 108 -186 318 -433 493 -580 278 -233 621 -393 934 -434 44 -6 98 -14
120 -17 l40 -5 -27 28 c-15 15 -32 41 -37 56 -8 20 -11 536 -11 1677 l0 1648
-27 6 c-16 3 -62 10 -103 16 -353 55 -772 215 -1014 388 -107 77 -224 203
-263 283 -34 69 -58 177 -47 211 13 41 -14 7 -70 -86 -59 -99 -196 -375 -196
-395 0 -23 -19 -10 -25 18 -3 16 -30 54 -58 84 l-52 56 -420 175 c-459 193
-479 198 -545 153z"/>
<path d="M6155 4982 c-404 -171 -422 -179 -465 -226 -28 -30 -52 -69 -64 -103
-10 -30 -20 -52 -23 -49 -2 2 -33 67 -67 144 -57 128 -186 365 -205 377 -5 2
-11 -30 -13 -73 -25 -359 -490 -682 -1136 -791 -64 -11 -153 -23 -197 -26 -44
-3 -95 -8 -112 -11 l-33 -5 0 -1644 c0 -1137 -3 -1652 -11 -1672 -5 -15 -22
-41 -37 -56 l-27 -29 60 7 c322 35 570 122 840 293 263 168 510 425 700 730
31 50 59 92 62 92 8 0 565 -300 581 -313 9 -7 12 -104 12 -424 0 -392 1 -416
20 -452 30 -59 78 -84 151 -79 48 3 65 10 90 34 59 55 59 53 59 526 -1 238 -4
452 -9 474 -4 23 -25 68 -47 100 -39 59 -41 60 -294 197 -140 76 -294 158
-342 183 l-86 45 34 84 c73 181 163 531 180 703 l7 62 37 0 c24 0 150 44 350
121 276 106 314 119 328 106 218 -188 620 -521 639 -528 44 -16 108 -11 144
14 49 32 83 105 74 159 -10 57 -34 80 -415 402 l-325 275 -82 12 -81 12 -314
-122 c-173 -66 -317 -121 -320 -121 -3 0 -9 66 -12 148 -7 148 -28 356 -45
444 -6 35 -5 52 4 65 7 10 46 119 86 244 l72 226 376 158 c207 87 391 167 409
177 129 78 65 289 -87 288 -37 -1 -133 -38 -466 -178z"/>
</g>
</svg>
